<svg width="14" height="16" viewBox="0 0 14 16" fill="none" xmlns="http://www.w3.org/2000/svg">
<path fill-rule="evenodd" clip-rule="evenodd" d="M3.71965 0.903896C1.97564 1.39966 0.507849 1.82251 0.4579 1.84361C0.342539 1.89227 0.232087 2.04033 0.191281 2.20094C0.150628 2.3611 0.0744469 3.16713 0.0318001 3.88871C-0.0110615 4.61348 -0.0104786 6.22027 0.0328432 6.8423C0.18809 9.07106 0.638857 10.7478 1.39407 11.9056C2.24689 13.213 3.5166 14.3788 4.95763 15.1776C5.65808 15.5659 6.73508 16 6.99793 16C7.17029 16 7.8204 15.7666 8.45528 15.4768C10.0577 14.7452 11.6364 13.3856 12.6018 11.9056C13.357 10.7478 13.8078 9.07106 13.963 6.8423C14.0344 5.81714 13.9995 4.05343 13.8835 2.82604C13.8171 2.12284 13.7651 1.96325 13.5686 1.85973C13.441 1.79254 7.07982 -0.00284082 6.97943 3.37569e-06C6.93055 0.00140985 5.46362 0.408162 3.71965 0.903896ZM10.3239 4.53241C10.4115 4.55719 10.5295 4.65127 10.7622 4.88196C10.9374 5.05558 11.1094 5.24496 11.1445 5.30281C11.2217 5.43005 11.2294 5.66574 11.1607 5.79767C11.0898 5.93378 6.69035 10.397 6.58941 10.4352C6.46975 10.4805 6.30874 10.476 6.19157 10.4242C6.06458 10.3681 3.29977 7.54407 3.25648 7.4263C3.16318 7.17242 3.25314 6.97908 3.64889 6.58298C4.05195 6.17957 4.22196 6.11225 4.49539 6.24777C4.57387 6.28665 4.94987 6.64583 5.50937 7.21633L6.3986 8.1231L8.14795 6.34438C10.0808 4.3791 10.005 4.44221 10.3239 4.53241Z" fill="#FF5353"/>
</svg>
