<svg width="41" height="40" viewBox="0 0 41 40" fill="none" xmlns="http://www.w3.org/2000/svg">
<rect x="0.5" width="40" height="40" rx="20" fill="#626262"/>
<path d="M16.965 19.293C18.098 18.16 20.074 18.16 21.207 19.293L21.914 20L23.328 18.586L22.621 17.879C21.678 16.935 20.422 16.414 19.086 16.414C17.75 16.414 16.494 16.935 15.551 17.879L13.429 20C12.4933 20.9387 11.9679 22.2101 11.9679 23.5355C11.9679 24.8609 12.4933 26.1323 13.429 27.071C13.8929 27.5355 14.444 27.9038 15.0506 28.1547C15.6573 28.4056 16.3075 28.5342 16.964 28.533C17.6207 28.5344 18.2711 28.4059 18.878 28.155C19.4848 27.9041 20.0361 27.5357 20.5 27.071L21.207 26.364L19.793 24.95L19.086 25.657C18.5225 26.218 17.7597 26.533 16.9645 26.533C16.1694 26.533 15.4066 26.218 14.843 25.657C14.2815 25.0937 13.9662 24.3308 13.9662 23.5355C13.9662 22.7402 14.2815 21.9773 14.843 21.414L16.965 19.293Z" fill="white"/>
<path d="M20.5 12.929L19.793 13.636L21.207 15.05L21.914 14.343C22.4775 13.782 23.2403 13.467 24.0355 13.467C24.8307 13.467 25.5935 13.782 26.157 14.343C26.7185 14.9063 27.0338 15.6692 27.0338 16.4645C27.0338 17.2598 26.7185 18.0227 26.157 18.586L24.035 20.707C22.902 21.84 20.926 21.84 19.793 20.707L19.086 20L17.672 21.414L18.379 22.121C19.322 23.065 20.578 23.586 21.914 23.586C23.25 23.586 24.506 23.065 25.449 22.121L27.571 20C28.5067 19.0613 29.0321 17.7899 29.0321 16.4645C29.0321 15.1391 28.5067 13.8677 27.571 12.929C26.6325 11.9928 25.3611 11.467 24.0355 11.467C22.7099 11.467 21.4385 11.9928 20.5 12.929Z" fill="white"/>
</svg>
