<svg width="41" height="40" viewBox="0 0 41 40" fill="none" xmlns="http://www.w3.org/2000/svg">
<rect x="0.5" width="40" height="40" rx="20" fill="#1DA1F2"/>
<g clip-path="url(#clip0_609_1115)">
<path d="M16.0475 29.7507C25.1042 29.7507 30.0578 22.2473 30.0578 15.7405C30.0578 15.5273 30.0578 15.3152 30.0434 15.104C31.007 14.4069 31.8389 13.5439 32.5 12.5552C31.6014 12.9536 30.648 13.2147 29.6718 13.3299C30.6998 12.7146 31.4692 11.7467 31.8366 10.6064C30.8701 11.18 29.8126 11.5842 28.7099 11.8016C27.9675 11.0122 26.9856 10.4894 25.9162 10.3143C24.8468 10.1391 23.7494 10.3213 22.794 10.8326C21.8385 11.344 21.0782 12.156 20.6307 13.1429C20.1833 14.1299 20.0735 15.2368 20.3186 16.2925C18.3609 16.1943 16.4458 15.6855 14.6975 14.7992C12.9492 13.9129 11.4068 12.6688 10.1704 11.1478C9.54073 12.2318 9.34787 13.515 9.6311 14.7362C9.91433 15.9574 10.6523 17.0248 11.6949 17.7209C10.9112 17.698 10.1446 17.4866 9.46 17.1046V17.167C9.46031 18.3039 9.85385 19.4056 10.5739 20.2854C11.2939 21.1652 12.2961 21.7688 13.4104 21.9939C12.6855 22.1916 11.9249 22.2205 11.187 22.0784C11.5018 23.0567 12.1144 23.9122 12.9392 24.5253C13.764 25.1384 14.7598 25.4785 15.7874 25.4979C14.7664 26.3004 13.5973 26.8937 12.3469 27.2439C11.0964 27.5941 9.78921 27.6943 8.5 27.5389C10.7518 28.9839 13.3719 29.7504 16.0475 29.7469" fill="white"/>
</g>
<defs>
<clipPath id="clip0_609_1115">
<rect width="24" height="24" fill="white" transform="translate(8.5 8)"/>
</clipPath>
</defs>
</svg>
