<svg width="151" height="139" viewBox="0 0 151 139" fill="none" xmlns="http://www.w3.org/2000/svg">
<path d="M1.65076 67.2266L62.175 41.6989L83.9546 56.6876L81.067 98.9195L29.9714 105.316L42.4465 133.234L16.3242 111.67L1.65076 67.2266Z" fill="#A9A9A9"/>
<path d="M54.3103 85.4151L8.09247 39.1974L95.8478 0L150.256 42.1225L126.855 97.7009V71.3743L54.3103 85.4151Z" fill="#2C3131"/>
<path d="M28.4157 31.5888H53.375V40.3573H46.8214V58.479H34.9693V40.3573H28.4157V31.5888Z" fill="white"/>
<path d="M54.1582 45.0339C54.1582 35.8527 59.7357 31.073 67.3002 31.073C74.8996 31.073 80.4771 35.8527 80.4771 45.0339C80.4771 54.215 74.8996 58.9947 67.3002 58.9947C59.7357 58.9947 54.1582 54.2494 54.1582 45.0339ZM63.2565 43.624L62.6291 44.5525C65.2784 45.7904 68.834 46.0999 72.1457 46.0999V45.0683C68.834 45.0683 65.6618 44.6556 63.2565 43.624Z" fill="white"/>
<path d="M82.2091 45.0339C82.2091 35.8527 87.7866 31.073 95.3511 31.073C102.95 31.073 108.528 35.8527 108.528 45.0339C108.528 54.215 102.95 58.9947 95.3511 58.9947C87.7866 58.9947 82.2091 54.2494 82.2091 45.0339ZM91.3074 43.624L90.68 44.5525C93.3293 45.7904 96.8849 46.0999 100.197 46.0999V45.0683C96.8849 45.0683 93.7127 44.6556 91.3074 43.624Z" fill="white"/>
<path d="M136.718 31.5888V58.479H122.984L120.195 49.4353V58.479H110.643V31.5888H124.413L128.143 42.283L129.084 42.0423L126.783 35.612V31.5888H136.718Z" fill="white"/>
</svg>
