<svg width="41" height="40" viewBox="0 0 41 40" fill="none" xmlns="http://www.w3.org/2000/svg">
<circle cx="20.5" cy="20" r="20" fill="#FEE500"/>
<path d="M20.7405 10C14.5181 10 9.5 14.0144 9.5 18.888C9.5 22.0514 11.5875 24.8213 14.7188 26.403L13.659 30.3613C13.639 30.4207 13.6359 30.4843 13.6501 30.5453C13.6643 30.6063 13.6952 30.6621 13.7393 30.7065C13.8036 30.7633 13.8864 30.7946 13.9721 30.7948C14.0432 30.7891 14.1107 30.761 14.1648 30.7146L18.7252 27.6395C19.3984 27.7324 20.077 27.7807 20.7566 27.784C26.9709 27.784 31.9971 23.7696 31.9971 18.888C31.9971 14.0064 26.9549 10 20.7405 10Z" fill="#392020"/>
<path d="M13.4339 17.4829H12.2054C12.0532 17.4873 11.9028 17.4483 11.7719 17.3705C11.7137 17.3341 11.6638 17.286 11.6251 17.2293C11.5864 17.1727 11.5598 17.1087 11.5471 17.0413C11.5432 16.9985 11.5432 16.9556 11.5471 16.9129C11.5432 16.8329 11.5588 16.7532 11.5923 16.6805C11.6258 16.6078 11.6764 16.5443 11.7397 16.4953C11.8797 16.394 12.0487 16.3404 12.2215 16.3427H15.9228C16.0763 16.3374 16.2277 16.3794 16.3564 16.4632C16.4159 16.498 16.4669 16.5456 16.5058 16.6026C16.5447 16.6595 16.5704 16.7243 16.5812 16.7924C16.5851 16.8325 16.5851 16.8728 16.5812 16.9129C16.585 16.994 16.5695 17.0748 16.536 17.1488C16.5025 17.2227 16.452 17.2877 16.3885 17.3383C16.2519 17.4396 16.0846 17.4907 15.9148 17.4829H14.7265V21.7061C14.7313 21.7961 14.7174 21.886 14.6856 21.9703C14.6538 22.0547 14.6049 22.1315 14.5418 22.1959C14.4814 22.2574 14.4087 22.3057 14.3285 22.3375C14.2483 22.3693 14.1624 22.3839 14.0762 22.3805C13.9254 22.3848 13.7778 22.3366 13.6587 22.2441C13.5452 22.1537 13.4683 22.0253 13.4419 21.8827C13.4339 21.8241 13.4339 21.7647 13.4419 21.7061L13.4339 17.4829Z" fill="#FEE500"/>
<path d="M16.9356 16.6559C16.9709 16.5238 17.0538 16.4094 17.1684 16.3347C17.2905 16.2655 17.4296 16.2321 17.5698 16.2384H17.8749C18.0237 16.233 18.171 16.2692 18.3005 16.3428C18.4376 16.435 18.5351 16.5754 18.5735 16.7362L20.1792 21.2725C20.2209 21.3909 20.2557 21.5116 20.2836 21.6339C20.2864 21.6847 20.2864 21.7356 20.2836 21.7864C20.2863 21.8647 20.2719 21.9425 20.2414 22.0147C20.2109 22.0868 20.165 22.1514 20.107 22.2039C20.0507 22.2616 19.9832 22.307 19.9086 22.3374C19.834 22.3678 19.7539 22.3825 19.6734 22.3805C19.5496 22.3928 19.4252 22.3631 19.3203 22.2961C19.2155 22.2291 19.1362 22.1288 19.0953 22.0112L18.7581 21.0237H16.6465L16.3093 22.0112C16.2694 22.1311 16.1892 22.2334 16.0823 22.3008C15.9755 22.3681 15.8485 22.3963 15.7232 22.3805C15.5874 22.3841 15.4544 22.3416 15.3458 22.2601C15.24 22.1759 15.1686 22.0561 15.1451 21.9229C15.1408 21.8775 15.1408 21.8318 15.1451 21.7864C15.1313 21.7067 15.1313 21.6253 15.1451 21.5456C15.1451 21.4573 15.2013 21.3609 15.2334 21.2725L16.9356 16.6559ZM17.7385 17.7077L16.9757 20.1164H18.4932L17.7385 17.7077Z" fill="#FEE500"/>
<path d="M20.4675 16.913C20.4593 16.7328 20.5228 16.5567 20.6441 16.4232C20.7058 16.361 20.7798 16.3124 20.8614 16.2806C20.943 16.2488 21.0304 16.2344 21.1178 16.2385C21.2682 16.2367 21.415 16.2847 21.5353 16.375C21.6469 16.4692 21.7209 16.6002 21.7441 16.7443C21.752 16.8002 21.752 16.857 21.7441 16.913V21.1362H23.952C24.1051 21.1342 24.2555 21.1759 24.3856 21.2565C24.4441 21.2926 24.4943 21.3406 24.533 21.3973C24.5718 21.454 24.5981 21.5182 24.6104 21.5858C24.6104 21.5858 24.6104 21.6661 24.6104 21.7062C24.6142 21.7862 24.5987 21.8658 24.5652 21.9385C24.5316 22.0112 24.481 22.0748 24.4177 22.1237C24.2778 22.2251 24.1088 22.2786 23.936 22.2762H21.2222C21.0494 22.2874 20.8776 22.2424 20.7324 22.1478C20.6026 22.0508 20.5161 21.9066 20.4916 21.7464C20.4857 21.6582 20.4857 21.5696 20.4916 21.4814L20.4675 16.913Z" fill="#FEE500"/>
<path d="M24.7551 16.913C24.7503 16.7333 24.8134 16.5585 24.9317 16.4232C25.0521 16.3139 25.2064 16.2493 25.3688 16.2406C25.5311 16.2318 25.6915 16.2793 25.823 16.375C25.9369 16.4684 26.0138 16.5993 26.0397 16.7443C26.0437 16.8005 26.0437 16.8569 26.0397 16.913V18.8801L28.0711 16.5356C28.1493 16.4556 28.2324 16.3806 28.32 16.3108C28.4024 16.2617 28.497 16.2366 28.5929 16.2385C28.7333 16.2377 28.8705 16.2798 28.9864 16.359C29.0409 16.3957 29.0876 16.4431 29.1234 16.4983C29.1593 16.5535 29.1837 16.6153 29.1951 16.6801C29.1984 16.696 29.1984 16.7125 29.1951 16.7284C29.1912 16.7469 29.1912 16.766 29.1951 16.7845C29.1948 16.869 29.1727 16.952 29.1309 17.0254C29.0883 17.1031 29.0371 17.1758 28.9783 17.2421L27.6455 18.7034L29.2513 21.1924V21.2727C29.3347 21.3877 29.3997 21.5151 29.444 21.6501V21.6902C29.4533 21.7832 29.4399 21.8771 29.4049 21.9638C29.37 22.0505 29.3145 22.1274 29.2433 22.188C29.1093 22.2892 28.9455 22.3429 28.7776 22.3406C28.6661 22.3452 28.5553 22.3202 28.4564 22.2682C28.3495 22.1965 28.2614 22.1002 28.1995 21.9872L26.7061 19.5786L25.9916 20.3253V21.6661C25.9964 21.8457 25.9333 22.0206 25.8149 22.1558C25.7515 22.2178 25.676 22.2663 25.5932 22.298C25.5103 22.3298 25.4218 22.3443 25.3332 22.3406C25.185 22.3437 25.0404 22.2954 24.9237 22.204C24.8103 22.1136 24.7333 21.9854 24.7069 21.8428C24.699 21.7842 24.699 21.7247 24.7069 21.6661L24.7551 16.913Z" fill="#FEE500"/>
</svg>
