<svg width="48" height="20" viewBox="0 0 48 20" fill="none" xmlns="http://www.w3.org/2000/svg">
<rect width="48" height="20" fill="#2C3131"/>
<path d="M16.6562 4.84766C15.0859 4.85352 13.9668 5.72656 13.9727 7.01562C13.9668 8.07617 14.752 8.87891 15.9297 9.11328V9.95117C15.0215 9.97461 14.1602 9.98047 13.4219 9.98047L13.5742 11.1641C15.3555 11.1699 17.7988 11.1172 19.9961 10.7305L19.8789 9.64062C19.0996 9.75195 18.2676 9.82812 17.4297 9.88086V9.10156C18.5723 8.85547 19.334 8.05859 19.3398 7.01562C19.334 5.72656 18.2148 4.85352 16.6562 4.84766ZM14.8281 14.8789H22.3398V13.6836H16.3281V11.8438H14.8281V14.8789ZM15.3672 7.01562C15.3555 6.34766 15.9004 5.98438 16.6562 5.97266C17.418 5.98438 17.9336 6.34766 17.9336 7.01562C17.9336 7.66602 17.4238 8.04102 16.6562 8.04688C15.9004 8.04102 15.3555 7.66602 15.3672 7.01562ZM20.4766 12.5586H21.9766V9.01953H23.3359V7.77734H21.9766V4.42578H20.4766V12.5586ZM32.8047 4.41406H31.3164V5.75H29.3008C29.3477 5.45703 29.3711 5.14648 29.3711 4.82422H24.543V6.03125H27.7129C27.5137 7.31445 26.3887 8.32812 23.9453 8.80859L24.4492 10.0273C26.8105 9.51172 28.334 8.48633 28.9961 6.88672H31.3164V7.82422H28.8789V8.96094H31.3164V9.78125H32.8047V4.41406ZM25.7148 11.3398H31.3047V11.9844H25.7266V14.9727H33.0391V13.7891H27.2266V13.0859H32.8047V10.168H25.7148V11.3398Z" fill="white"/>
</svg>
