<svg width="48" height="54" viewBox="0 0 48 54" fill="none" xmlns="http://www.w3.org/2000/svg">
<rect width="48" height="54" fill="#ABB4BF"/>
<path d="M9.51562 22.1016H8.01172V32H9.51562V22.1016ZM18.2246 25.3281H19.7422C19.4072 23.2021 17.7461 21.9648 15.6543 21.9648C13.0908 21.9648 11.1973 23.8857 11.1973 27.0508C11.1973 30.2158 13.0771 32.1367 15.6543 32.1367C17.835 32.1367 19.4277 30.7695 19.7422 28.8145L18.2246 28.8008C17.9648 30.0654 16.9121 30.7627 15.668 30.7559C13.9658 30.7627 12.6943 29.4639 12.6875 27.0508C12.6943 24.6514 13.959 23.3389 15.668 23.3457C16.9258 23.3389 17.9854 24.0498 18.2246 25.3281ZM29.9688 27.0508C29.9688 23.8857 28.0684 21.9648 25.5117 21.9648C22.9346 21.9648 21.041 23.8857 21.041 27.0508C21.041 30.209 22.9346 32.1367 25.5117 32.1367C28.0684 32.1367 29.9688 30.2158 29.9688 27.0508ZM22.5312 27.0508C22.5381 24.6445 23.8027 23.3389 25.5117 23.3457C27.207 23.3389 28.4717 24.6445 28.4785 27.0508C28.4717 29.457 27.207 30.7627 25.5117 30.7559C23.8027 30.7627 22.5381 29.457 22.5312 27.0508ZM39.6484 22.1016H38.1719V29.3477H38.0762L33.0586 22.1016H31.6641V32H33.168V24.7676H33.25L38.2676 32H39.6484V22.1016Z" fill="black"/>
</svg>
