<svg width="68" height="20" viewBox="0 0 68 20" fill="none" xmlns="http://www.w3.org/2000/svg">
<rect width="68" height="20" fill="#2C3131"/>
<path d="M4.64453 14H6.63672V11.6797L7.48047 10.6367L9.625 14H12.0156L8.93359 9.30078L11.9688 5.51562H9.60156L6.75391 9.13672H6.63672V5.51562H4.64453V14ZM19.4992 5.375H14.4953V6.71094H17.8176C17.7824 7.17383 17.718 7.60742 17.6242 8.01758L13.9211 8.22266L14.1086 9.66406L17.1145 9.38867C16.5227 10.4902 15.5031 11.4219 13.7922 12.2773L14.7063 13.543C18.7785 11.4922 19.4992 8.75586 19.4992 5.375ZM20.7297 15.0898H22.4172V9.79297H23.8586V8.41016H22.4172V4.36719H20.7297V15.0898ZM29.2703 5.375H24.2664V6.71094H27.5887C27.5535 7.17383 27.4891 7.60742 27.3953 8.01758L23.6922 8.22266L23.8797 9.66406L26.8855 9.38867C26.2938 10.4902 25.2742 11.4219 23.5633 12.2773L24.4773 13.543C28.5496 11.4922 29.2703 8.75586 29.2703 5.375ZM30.5008 15.0898H32.1883V9.79297H33.6297V8.41016H32.1883V4.36719H30.5008V15.0898ZM38.3266 4.88281C36.0121 4.87695 34.2543 6.07227 34.2602 7.85938C34.2543 9.49414 35.602 10.5898 37.4945 10.8301V12.5352H33.4281V13.9062H43.2602V12.5352H39.1586V10.8301C41.057 10.5898 42.4105 9.49414 42.4164 7.85938C42.4105 6.07227 40.6469 4.87695 38.3266 4.88281ZM35.9359 7.85938C35.9301 6.82812 36.9027 6.21875 38.3266 6.21875C39.768 6.21875 40.7406 6.82812 40.7406 7.85938C40.7406 8.96094 39.768 9.54102 38.3266 9.54688C36.9027 9.54102 35.9301 8.96094 35.9359 7.85938ZM52.6445 4.36719H51.0273V10.9766H52.6445V4.36719ZM43.1289 8.29297L43.2812 9.53516C43.8086 9.53516 44.4707 9.5293 45.1797 9.50586V10.9062H46.7852V9.40039C47.4297 9.33594 48.0684 9.24805 48.6484 9.11328L48.5312 8C46.832 8.25781 44.5059 8.28711 43.1289 8.29297ZM43.5391 6.34766C43.5332 7.32031 44.4941 7.96484 45.9062 7.96484C47.3125 7.96484 48.2793 7.32031 48.2852 6.34766C48.2793 5.35156 47.3125 4.73633 45.9062 4.73047C44.4941 4.73633 43.5332 5.35156 43.5391 6.34766ZM44.8281 15.0078H52.6445V11.293H50.957V11.9141H46.5039V11.293H44.8281V15.0078ZM45.0625 6.34766C45.0566 6.01367 45.3672 5.89062 45.9062 5.89062C46.4395 5.89062 46.7793 6.01367 46.7852 6.34766C46.7793 6.68164 46.4395 6.79883 45.9062 6.80469C45.3672 6.79883 45.0566 6.68164 45.0625 6.34766ZM46.5039 13.7188V13.1914H50.957V13.7188H46.5039ZM47.418 10.6953H48.9414V10.9648H50.5234V4.55469H48.9414V9.58203H47.418V10.6953ZM62.7906 10.1211H52.9586V11.457H57.1891V12.9102H58.8531V11.457H62.7906V10.1211ZM54.0719 14.9492H61.7125V13.6016H55.7594V12.0312H54.0719V14.9492ZM54.1539 9.60547H61.7594V8.30469H55.8297V7.78906H61.4195V6.52344H55.8297V6.00781H61.6539V4.70703H54.1539V9.60547Z" fill="white"/>
</svg>
