<svg width="68" height="20" viewBox="0 0 68 20" fill="none" xmlns="http://www.w3.org/2000/svg">
<rect width="68" height="20" fill="#31C52E"/>
<path d="M11.8398 5.51562H9.84766V10.4961H9.77734L6.36719 5.51562H4.64453V14H6.63672V9.01953H6.69531L10.1406 14H11.8398V5.51562ZM16.3234 5.35156H14.6242V12.5938H15.3977C16.8098 12.5996 17.9523 12.5586 19.2414 12.2656L19.0188 10.8594C18.0871 11.0586 17.2492 11.1348 16.3234 11.1582V5.35156ZM17.6594 9.05469H19.7102V14.668H21.2922V4.55469H19.7102V7.70703H17.6594V9.05469ZM22.0188 15.125H23.6008V4.36719H22.0188V15.125ZM33.0555 4.36719H31.3563V15.1484H33.0555V4.36719ZM24.3016 8.94922C24.3016 11.3398 25.5262 12.8281 27.1844 12.8281C28.8191 12.8281 30.0379 11.3398 30.0438 8.94922C30.0379 6.59375 28.8191 5.09961 27.1844 5.10547C25.5262 5.09961 24.3016 6.59375 24.3016 8.94922ZM25.9422 8.94922C25.9305 7.41406 26.4285 6.62305 27.1844 6.62891C27.9168 6.62305 28.409 7.41406 28.4148 8.94922C28.409 10.5137 27.9168 11.293 27.1844 11.293C26.4285 11.293 25.9305 10.5137 25.9422 8.94922ZM42.9086 4.36719H41.2445V8.09375H39.4398V5.19922H37.7875V7.74219H35.8539V5.19922H34.1781V12.6523H39.4398V9.45312H41.2445V15.1484H42.9086V4.36719ZM35.8539 11.3047V9.05469H37.7875V11.3047H35.8539ZM53.0078 4.36719H51.3906V10.9766H53.0078V4.36719ZM43.4922 8.29297L43.6445 9.53516C44.1719 9.53516 44.834 9.5293 45.543 9.50586V10.9062H47.1484V9.40039C47.793 9.33594 48.4316 9.24805 49.0117 9.11328L48.8945 8C47.1953 8.25781 44.8691 8.28711 43.4922 8.29297ZM43.9023 6.34766C43.8965 7.32031 44.8574 7.96484 46.2695 7.96484C47.6758 7.96484 48.6426 7.32031 48.6484 6.34766C48.6426 5.35156 47.6758 4.73633 46.2695 4.73047C44.8574 4.73633 43.8965 5.35156 43.9023 6.34766ZM45.1914 15.0078H53.0078V11.293H51.3203V11.9141H46.8672V11.293H45.1914V15.0078ZM45.4258 6.34766C45.4199 6.01367 45.7305 5.89062 46.2695 5.89062C46.8027 5.89062 47.1426 6.01367 47.1484 6.34766C47.1426 6.68164 46.8027 6.79883 46.2695 6.80469C45.7305 6.79883 45.4199 6.68164 45.4258 6.34766ZM46.8672 13.7188V13.1914H51.3203V13.7188H46.8672ZM47.7812 10.6953H49.3047V10.9648H50.8867V4.55469H49.3047V9.58203H47.7812V10.6953ZM63.1539 10.1211H53.3219V11.457H57.5523V12.9102H59.2164V11.457H63.1539V10.1211ZM54.4352 14.9492H62.0758V13.6016H56.1227V12.0312H54.4352V14.9492ZM54.5172 9.60547H62.1227V8.30469H56.193V7.78906H61.7828V6.52344H56.193V6.00781H62.0172V4.70703H54.5172V9.60547Z" fill="white"/>
</svg>
