<svg width="54" height="46" viewBox="0 0 54 46" fill="none" xmlns="http://www.w3.org/2000/svg">
<g clip-path="url(#clip0_920_819)">
<path d="M1.0127 16.4121C1.12623 17.2441 1.40038 18.0475 1.82063 18.7796C2.23358 19.507 2.90198 20.064 3.70247 20.3479C4.62038 20.5887 5.5951 20.5146 6.46385 20.1381C6.77736 20.0439 7.06431 19.8802 7.3023 19.6597C7.5403 19.4393 7.72288 19.168 7.83577 18.8672C7.94865 18.5664 7.9888 18.2442 7.95306 17.9258C7.91732 17.6073 7.80663 17.3012 7.62971 17.0315C7.38229 16.75 7.05957 16.5414 6.69762 16.429C6.33567 16.3166 5.94879 16.3049 5.58039 16.3951C5.21198 16.4853 4.87656 16.6739 4.61172 16.9398C4.34687 17.2057 4.16308 17.5384 4.08088 17.9005C3.95059 18.4847 3.98593 19.0926 4.18312 19.6586C5.06267 22.086 8.33544 21.9461 12.0888 20.7774" stroke="#2C3131" stroke-width="2" stroke-miterlimit="10"/>
<path d="M49.4077 23.2647C48.8248 17.1414 48.7123 14.9737 41.3998 9.22997L43.0566 4.2354C39.0475 2.96678 33.9441 5.52397 32.7271 7.51181C31.7106 7.37206 30.6854 7.302 29.6589 7.30208C26.5238 7.26757 23.4216 7.9294 20.5868 9.23766C17.752 10.5459 15.2587 12.4664 13.2953 14.8539C9.80775 19.319 9.58273 24.843 10.6566 30.1572C11.1595 32.7418 11.8812 35.2811 12.8145 37.749C13.3179 39.0478 13.9019 40.3155 14.5634 41.5448C14.8293 42.0343 16.2611 45.0011 16.8338 45.0011H22.3361L22.9293 39.6669C25.1059 40.3385 27.3763 40.6755 29.6589 40.6658C31.9624 40.6859 34.2545 40.3488 36.4497 39.6669L37.0532 45.021H42.5452C45.2861 41.6447 46.9941 37.0297 48.027 33.2339C48.1332 32.8358 48.3547 32.4762 48.6649 32.198C48.9751 31.9198 49.3608 31.7349 49.7759 31.6655L52.9771 31.1362V25.1427L50.8089 24.7631C50.4384 24.7001 50.0998 24.5188 49.8462 24.2476C49.5926 23.9765 49.4384 23.6308 49.4077 23.2647Z" fill="#FFC6D4" stroke="#2C3131" stroke-width="2" stroke-miterlimit="10"/>
<path d="M18.6037 13.5453C17.3933 13.0041 16.3744 12.1245 15.676 11.0176C14.9775 9.91079 14.6309 8.62653 14.6798 7.32724C14.7288 6.02794 15.1712 4.772 15.951 3.71831C16.7309 2.66461 17.8131 1.86049 19.061 1.40765C20.3088 0.954803 21.666 0.8736 22.9611 1.17429C24.2562 1.47497 25.4309 2.14407 26.3366 3.09691C27.2423 4.04975 27.8384 5.24352 28.0493 6.52726C28.2603 7.811 28.0767 9.12697 27.5218 10.3088" fill="#F5B617"/>
<path d="M18.6037 13.5453C17.3933 13.0041 16.3744 12.1245 15.676 11.0176C14.9775 9.91079 14.6309 8.62653 14.6798 7.32724C14.7288 6.02794 15.1712 4.772 15.951 3.71831C16.7309 2.66461 17.8131 1.86049 19.061 1.40765C20.3088 0.954803 21.666 0.8736 22.9611 1.17429C24.2562 1.47497 25.4309 2.14407 26.3366 3.09691C27.2423 4.04975 27.8384 5.24352 28.0493 6.52726C28.2603 7.811 28.0767 9.12697 27.5218 10.3088" stroke="#2C3131" stroke-width="2" stroke-miterlimit="10"/>
<path d="M29.1989 9.78937L17.0898 14.9737" stroke="#2C3131" stroke-width="2" stroke-miterlimit="10"/>
<path d="M17.7342 7.84151L16.7114 6.75266L17.9081 6.14334L18.849 7.26212L19.9637 6.70273L19.5955 5.29429L20.6183 4.75483L21.641 5.85368L22.7558 5.29429L22.3569 3.90578L23.5535 3.30646L23.9012 4.7149L24.5046 4.41524L24.9342 5.23435L24.1364 5.64388L24.9956 9.06015L23.5842 9.7794L21.2831 7.20219L22.1421 10.4986L20.7307 11.2078L18.3376 8.5607L17.5705 8.94029L17.141 8.13117L17.7342 7.84151ZM20.6694 9.24995L20.2398 7.62177L19.5035 7.99137L20.608 9.28994L20.6694 9.24995ZM23.5228 7.82151L23.0523 6.20327L22.316 6.57287L23.4512 7.85151L23.5228 7.82151Z" fill="#2C3131"/>
<path d="M44.5602 24.0639C45.4695 24.0639 46.2068 23.3438 46.2068 22.4556C46.2068 21.5674 45.4695 20.8474 44.5602 20.8474C43.6508 20.8474 42.9136 21.5674 42.9136 22.4556C42.9136 23.3438 43.6508 24.0639 44.5602 24.0639Z" fill="#2C3131"/>
</g>
<defs>
<clipPath id="clip0_920_819">
<rect width="54" height="46" fill="white"/>
</clipPath>
</defs>
</svg>
