<svg width="48" height="20" viewBox="0 0 48 20" fill="none" xmlns="http://www.w3.org/2000/svg">
<rect width="48" height="20" fill="#0066FF"/>
<path d="M17.748 4.42578H16.2598V5.91406H13.8164C13.3008 5.36914 12.5625 5.04102 11.7363 5.03516C10.1191 5.04102 8.88867 6.20703 8.90039 7.8125C8.88867 9.39453 10.1191 10.5664 11.7363 10.5664C12.5684 10.5664 13.3066 10.2324 13.8223 9.6875H16.2598V12.2188H17.748V4.42578ZM10.3184 7.8125C10.3125 6.91016 10.9043 6.37109 11.7363 6.37109C12.5215 6.37109 13.125 6.91016 13.1309 7.8125C13.125 8.70312 12.5215 9.24219 11.7363 9.24219C10.9043 9.24219 10.3125 8.70312 10.3184 7.8125ZM10.6699 14.8906H18.0059V13.6953H12.1699V11.4336H10.6699V14.8906ZM14.4609 7.10938H16.2598V8.49219H14.4668C14.5195 8.27539 14.5488 8.04688 14.5488 7.8125C14.5488 7.56641 14.5195 7.33203 14.4609 7.10938ZM28.4355 4.41406H27.0059V8.51562H26.1035V4.56641H24.6855V11.5098C23.0801 10.6777 22.5293 8.9082 22.5293 7.05078V6.71094H24.1582V5.51562H19.2715V6.71094H21.0762V7.05078C21.0703 9.08984 20.5312 10.9766 18.9082 11.8906L19.834 13.0391C20.8535 12.4297 21.4805 11.4102 21.832 10.1621C22.2129 11.2461 22.8516 12.1309 23.8418 12.6523L24.6855 11.5332V14.5859H26.1035V9.73438H27.0059V15.0781H28.4355V4.41406ZM39.2285 9.25391H29.502V10.4609H33.6152V11.2461C31.7227 11.3809 30.6152 12.0488 30.6152 13.1562C30.6152 14.3926 32.0156 15.084 34.3535 15.0781C36.6562 15.084 38.0566 14.3926 38.0684 13.1562C38.0566 12.0547 36.9551 11.3867 35.1035 11.252V10.4609H39.2285V9.25391ZM29.9355 7.68359L30.4277 8.85547C32.4492 8.66797 33.791 7.90039 34.3535 6.86914C34.9219 7.90625 36.2754 8.66211 38.291 8.85547L38.8184 7.68359C36.791 7.50781 35.707 6.78711 35.4492 6.04297H38.3496V4.87109H30.3926V6.04297H33.2695C33 6.78125 31.9102 7.50781 29.9355 7.68359ZM32.1387 13.1562C32.1328 12.6172 32.877 12.3594 34.3535 12.3477C35.8008 12.3594 36.5625 12.6172 36.5684 13.1562C36.5625 13.6719 35.8008 13.9531 34.3535 13.9531C32.877 13.9531 32.1328 13.6719 32.1387 13.1562Z" fill="white"/>
</svg>
