<svg width="24" height="24" viewBox="0 0 24 24" fill="none" xmlns="http://www.w3.org/2000/svg">
<path d="M18.0625 15.75C17.3945 15.75 16.7781 15.9844 16.2953 16.3758L11.4391 12.8625C11.5204 12.4162 11.5204 11.9588 11.4391 11.5125L16.2953 7.99922C16.7781 8.39062 17.3945 8.625 18.0625 8.625C19.6141 8.625 20.875 7.36406 20.875 5.8125C20.875 4.26094 19.6141 3 18.0625 3C16.5109 3 15.25 4.26094 15.25 5.8125C15.25 6.08437 15.2875 6.34453 15.3602 6.59297L10.7477 9.93281C10.0633 9.02578 8.97578 8.4375 7.75 8.4375C5.67812 8.4375 4 10.1156 4 12.1875C4 14.2594 5.67812 15.9375 7.75 15.9375C8.97578 15.9375 10.0633 15.3492 10.7477 14.4422L15.3602 17.782C15.2875 18.0305 15.25 18.293 15.25 18.5625C15.25 20.1141 16.5109 21.375 18.0625 21.375C19.6141 21.375 20.875 20.1141 20.875 18.5625C20.875 17.0109 19.6141 15.75 18.0625 15.75ZM18.0625 4.59375C18.7352 4.59375 19.2812 5.13984 19.2812 5.8125C19.2812 6.48516 18.7352 7.03125 18.0625 7.03125C17.3898 7.03125 16.8438 6.48516 16.8438 5.8125C16.8438 5.13984 17.3898 4.59375 18.0625 4.59375ZM7.75 14.25C6.61328 14.25 5.6875 13.3242 5.6875 12.1875C5.6875 11.0508 6.61328 10.125 7.75 10.125C8.88672 10.125 9.8125 11.0508 9.8125 12.1875C9.8125 13.3242 8.88672 14.25 7.75 14.25ZM18.0625 19.7812C17.3898 19.7812 16.8438 19.2352 16.8438 18.5625C16.8438 17.8898 17.3898 17.3438 18.0625 17.3438C18.7352 17.3438 19.2812 17.8898 19.2812 18.5625C19.2812 19.2352 18.7352 19.7812 18.0625 19.7812Z" fill="#2C3131"/>
</svg>
