<svg width="180" height="47" viewBox="0 0 180 47" fill="none" xmlns="http://www.w3.org/2000/svg">
<g filter="url(#filter0_d_603_849)">
<mask id="path-1-inside-1_603_849" fill="white">
<path fill-rule="evenodd" clip-rule="evenodd" d="M16 0C7.16344 0 0 7.16344 0 16C0 24.8366 7.16344 32 16 32L84.0002 32L90.0623 42.5L96.1245 32H164C172.837 32 180 24.8366 180 16C180 7.16344 172.837 0 164 0H16Z"/>
</mask>
<path fill-rule="evenodd" clip-rule="evenodd" d="M16 0C7.16344 0 0 7.16344 0 16C0 24.8366 7.16344 32 16 32L84.0002 32L90.0623 42.5L96.1245 32H164C172.837 32 180 24.8366 180 16C180 7.16344 172.837 0 164 0H16Z" fill="#FF6262"/>
<path d="M16 32V34V32ZM84.0002 32L85.7322 31L85.1549 30H84.0002V32ZM90.0623 42.5L88.3303 43.5L90.0623 46.5L91.7944 43.5L90.0623 42.5ZM96.1245 32V30H94.9698L94.3925 31L96.1245 32ZM2 16C2 8.26801 8.26801 2 16 2V-2C6.05888 -2 -2 6.05887 -2 16H2ZM16 30C8.26801 30 2 23.732 2 16H-2C-2 25.9411 6.05887 34 16 34V30ZM84.0002 30L16 30V34H84.0002V30ZM91.7944 41.5L85.7322 31L82.2681 33L88.3303 43.5L91.7944 41.5ZM94.3925 31L88.3303 41.5L91.7944 43.5L97.8566 33L94.3925 31ZM164 30H96.1245V34H164V30ZM178 16C178 23.732 171.732 30 164 30V34C173.941 34 182 25.9411 182 16H178ZM164 2C171.732 2 178 8.26801 178 16H182C182 6.05888 173.941 -2 164 -2V2ZM16 2H164V-2H16V2Z" fill="#2C3131" mask="url(#path-1-inside-1_603_849)"/>
</g>
<defs>
<filter id="filter0_d_603_849" x="0" y="0" width="180" height="46.5" filterUnits="userSpaceOnUse" color-interpolation-filters="sRGB">
<feFlood flood-opacity="0" result="BackgroundImageFix"/>
<feColorMatrix in="SourceAlpha" type="matrix" values="0 0 0 0 0 0 0 0 0 0 0 0 0 0 0 0 0 0 127 0" result="hardAlpha"/>
<feOffset dy="4"/>
<feComposite in2="hardAlpha" operator="out"/>
<feColorMatrix type="matrix" values="0 0 0 0 0.172549 0 0 0 0 0.192157 0 0 0 0 0.192157 0 0 0 1 0"/>
<feBlend mode="normal" in2="BackgroundImageFix" result="effect1_dropShadow_603_849"/>
<feBlend mode="normal" in="SourceGraphic" in2="effect1_dropShadow_603_849" result="shape"/>
</filter>
</defs>
</svg>
