<svg width="11" height="12" viewBox="0 0 11 12" fill="none" xmlns="http://www.w3.org/2000/svg">
<path d="M0.765625 12H3.73438V9.04688L4.78125 7.70312L7.39062 12H10.9531L7 5.73438L10.875 0.6875H7.39062L3.89062 5.3125H3.73438V0.6875H0.765625V12Z" fill="black"/>
<path d="M0.765625 12H-0.234375V13H0.765625V12ZM3.73438 12V13H4.73438V12H3.73438ZM3.73438 9.04688L2.94552 8.4323L2.73438 8.70332V9.04688H3.73438ZM4.78125 7.70312L5.63599 7.18407L4.88343 5.94483L3.99239 7.08855L4.78125 7.70312ZM7.39062 12L6.53589 12.5191L6.82795 13H7.39062V12ZM10.9531 12V13H12.7664L11.7989 11.4664L10.9531 12ZM7 5.73438L6.20683 5.12538L5.78225 5.67835L6.15426 6.26797L7 5.73438ZM10.875 0.6875L11.6682 1.2965L12.9036 -0.3125H10.875V0.6875ZM7.39062 0.6875V-0.3125H6.89332L6.59322 0.0840573L7.39062 0.6875ZM3.89062 5.3125V6.3125H4.38793L4.68803 5.91594L3.89062 5.3125ZM3.73438 5.3125H2.73438V6.3125H3.73438V5.3125ZM3.73438 0.6875H4.73438V-0.3125H3.73438V0.6875ZM0.765625 0.6875V-0.3125H-0.234375V0.6875H0.765625ZM0.765625 13H3.73438V11H0.765625V13ZM4.73438 12V9.04688H2.73438V12H4.73438ZM4.52323 9.66145L5.57011 8.3177L3.99239 7.08855L2.94552 8.4323L4.52323 9.66145ZM3.92651 8.22218L6.53589 12.5191L8.24536 11.4809L5.63599 7.18407L3.92651 8.22218ZM7.39062 13H10.9531V11H7.39062V13ZM11.7989 11.4664L7.84574 5.20078L6.15426 6.26797L10.1074 12.5336L11.7989 11.4664ZM7.79317 6.34337L11.6682 1.2965L10.0818 0.0785015L6.20683 5.12538L7.79317 6.34337ZM10.875 -0.3125H7.39062V1.6875H10.875V-0.3125ZM6.59322 0.0840573L3.09322 4.70906L4.68803 5.91594L8.18803 1.29094L6.59322 0.0840573ZM3.89062 4.3125H3.73438V6.3125H3.89062V4.3125ZM4.73438 5.3125V0.6875H2.73438V5.3125H4.73438ZM3.73438 -0.3125H0.765625V1.6875H3.73438V-0.3125ZM-0.234375 0.6875V12H1.76562V0.6875H-0.234375Z" fill="white" fill-opacity="0.4"/>
</svg>
